# xmcd
#
# Track frame offsets:
#	150
#	17247
#	30998
#	46892
#	61706
#	75690
#	90388
#	105266
#	116141
#	132216
#	146448
#	163313
#
# Disc length: 2355 seconds
#
# Revision: 1
# Processed by: cddbd v1.5.2PL0 Copyright (c) Steve Scherf et al.
# Submitted via: EasyCDDAExtractor 2010.4.0.0
#
DISCID=8e09310c
DTITLE=Imperial State Electric
DYEAR=2010
DGENRE=Hard Rock
TTITLE0=A holiday from my vacation
TTITLE1=Lord knows I know that it aint right
TTITLE2=Resign
TTITLE3=Throwing stones
TTITLE4=I´ll let you down
TTITLE5=I got all day long
TTITLE6=Lee Anne
TTITLE7=Deja Vu
TTITLE8=Together in the darkness
TTITLE9=Alive
TTITLE10=Diseased pieces of my heart
TTITLE11=Redemtions gone
EXTD=
EXTT0=
EXTT1=
EXTT2=
EXTT3=
EXTT4=
EXTT5=
EXTT6=
EXTT7=
EXTT8=
EXTT9=
EXTT10=
EXTT11=
PLAYORDER=
